<svg xmlns="http://www.w3.org/2000/svg" width="465" height="320" viewBox="0 0 77.44 53.36"><title>Explored</title><desc>A cold wash laid ON the plate, never replacing it: on weighted floors the ground underneath is the lesson.</desc><rect width="100%" height="100%" fill="#151a22"/><text x="4" y="8" font-family="ui-monospace,Menlo,monospace" font-size="7.5" fill="#c3ccd8">overlay_explored</text><text x="4" y="15" font-family="ui-monospace,Menlo,monospace" font-size="5.5" fill="#8b98a8">2 distinct rotations (the others repeat)</text><g transform="translate(0 16)"><g transform="translate(19.36 4.18)"><polyline points="-3.84,2.62 8.96,9.02" fill="none" stroke="rgba(195,204,216,0.08)" stroke-width="0.8" stroke-linejoin="round" stroke-linecap="round"/><polygon points="0.00,-0.18 15.36,7.50 0.00,15.18 -15.36,7.50" fill="rgba(47,111,176,0.26)"/><polygon points="0.00,1.22 12.16,7.30 0.00,13.38 -12.16,7.30" fill="rgba(47,111,176,0.16)"/><polyline points="-8.96,5.18 3.84,11.58" fill="none" stroke="rgba(195,204,216,0.08)" stroke-width="0.8" stroke-linejoin="round" stroke-linecap="round"/></g><text x="19.36" y="32.36" font-family="ui-monospace,Menlo,monospace" font-size="7" fill="#8b98a8" text-anchor="middle">rot 0</text><g transform="translate(58.08 4.18)"><polyline points="-8.96,9.02 3.84,2.62" fill="none" stroke="rgba(195,204,216,0.08)" stroke-width="0.8" stroke-linejoin="round" stroke-linecap="round"/><polygon points="-15.36,7.50 -0.00,-0.18 15.36,7.50 0.00,15.18" fill="rgba(47,111,176,0.26)"/><polygon points="-12.16,7.30 0.00,1.22 12.16,7.30 0.00,13.38" fill="rgba(47,111,176,0.16)"/><polyline points="-3.84,11.58 8.96,5.18" fill="none" stroke="rgba(195,204,216,0.08)" stroke-width="0.8" stroke-linejoin="round" stroke-linecap="round"/></g><text x="58.08" y="32.36" font-family="ui-monospace,Menlo,monospace" font-size="7" fill="#8b98a8" text-anchor="middle">rot 1</text></g></svg>
