<svg xmlns="http://www.w3.org/2000/svg" width="816" height="387" viewBox="0 0 136.00 64.52"><title>Path, end</title><desc>Arrives from the west and stops. A ring and a post, so the end of a leg is a place rather than a stub.</desc><defs><radialGradient id="r0_9" cx="50%" cy="50%" r="50%"><stop offset="0" stop-color="#ffc21f" stop-opacity="0.45"/><stop offset="0.55" stop-color="#ffc21f" stop-opacity="0.158"/><stop offset="1" stop-color="#ffc21f" stop-opacity="0"/></radialGradient><radialGradient id="r1_9" cx="50%" cy="50%" r="50%"><stop offset="0" stop-color="#ffc21f" stop-opacity="0.45"/><stop offset="0.55" stop-color="#ffc21f" stop-opacity="0.158"/><stop offset="1" stop-color="#ffc21f" stop-opacity="0"/></radialGradient><radialGradient id="r2_9" cx="50%" cy="50%" r="50%"><stop offset="0" stop-color="#ffc21f" stop-opacity="0.45"/><stop offset="0.55" stop-color="#ffc21f" stop-opacity="0.158"/><stop offset="1" stop-color="#ffc21f" stop-opacity="0"/></radialGradient><radialGradient id="r3_9" cx="50%" cy="50%" r="50%"><stop offset="0" stop-color="#ffc21f" stop-opacity="0.45"/><stop offset="0.55" stop-color="#ffc21f" stop-opacity="0.158"/><stop offset="1" stop-color="#ffc21f" stop-opacity="0"/></radialGradient></defs><rect width="100%" height="100%" fill="#151a22"/><text x="4" y="8" font-family="ui-monospace,Menlo,monospace" font-size="7.5" fill="#c3ccd8">overlay_path_end</text><text x="4" y="15" font-family="ui-monospace,Menlo,monospace" font-size="5.5" fill="#8b98a8">four distinct rotations</text><g transform="translate(0 16)"><g transform="translate(17.00 24.00)"><polygon points="1.92,-1.36 -1.92,0.56 -1.92,2.36 1.92,0.44" fill="#6e3218"/><polygon points="-10.24,-3.60 -1.92,0.56 -1.92,2.36 -10.24,-1.80" fill="#9a4016"/><polygon points="-6.40,-5.52 1.92,-1.36 -1.92,0.56 -10.24,-3.60" fill="#ff873e"/><polygon points="6.79,1.20 6.56,2.08 5.88,2.90 4.80,3.60 3.39,4.14 1.76,4.48 0.00,4.59 -1.76,4.48 -3.39,4.14 -4.80,3.60 -5.88,2.90 -6.56,2.08 -6.79,1.20 -6.56,0.32 -5.88,-0.50 -4.80,-1.20 -3.39,-1.74 -1.76,-2.08 -0.00,-2.19 1.76,-2.08 3.39,-1.74 4.80,-1.20 5.88,-0.50 6.56,0.32" fill="#b84a15"/><polygon points="4.98,-0.50 4.81,0.14 4.31,0.74 3.52,1.26 2.49,1.66 1.29,1.90 0.00,1.99 -1.29,1.90 -2.49,1.66 -3.52,1.26 -4.31,0.74 -4.81,0.14 -4.98,-0.50 -4.81,-1.14 -4.31,-1.74 -3.52,-2.26 -2.49,-2.66 -1.29,-2.90 -0.00,-2.99 1.29,-2.90 2.49,-2.66 3.52,-2.26 4.31,-1.74 4.81,-1.14" fill="#ff7a29"/><polygon points="1.28,-7.00 0.00,-6.36 0.00,0.14 1.28,-0.50" fill="#555e6a"/><polygon points="-1.28,-7.00 0.00,-6.36 0.00,0.14 -1.28,-0.50" fill="#75808f"/><polygon points="0.00,-7.64 1.28,-7.00 0.00,-6.36 -1.28,-7.00" fill="#97a2b1"/><polygon points="2.72,-7.40 2.62,-7.05 2.35,-6.72 1.92,-6.44 1.36,-6.22 0.70,-6.09 0.00,-6.04 -0.70,-6.09 -1.36,-6.22 -1.92,-6.44 -2.35,-6.72 -2.62,-7.05 -2.72,-7.40 -2.62,-7.75 -2.35,-8.08 -1.92,-8.36 -1.36,-8.58 -0.70,-8.71 -0.00,-8.76 0.70,-8.71 1.36,-8.58 1.92,-8.36 2.35,-8.08 2.62,-7.75" fill="#ffc21f"/><ellipse cx="0.00" cy="-7.00" rx="13.00" ry="8.78" fill="url(#r0_9)"/></g><text x="17.00" y="43.52" font-family="ui-monospace,Menlo,monospace" font-size="7" fill="#8b98a8" text-anchor="middle">rot 0</text><g transform="translate(51.00 24.00)"><polygon points="6.79,1.20 6.56,2.08 5.88,2.90 4.80,3.60 3.39,4.14 1.76,4.48 0.00,4.59 -1.76,4.48 -3.39,4.14 -4.80,3.60 -5.88,2.90 -6.56,2.08 -6.79,1.20 -6.56,0.32 -5.88,-0.50 -4.80,-1.20 -3.39,-1.74 -1.76,-2.08 -0.00,-2.19 1.76,-2.08 3.39,-1.74 4.80,-1.20 5.88,-0.50 6.56,0.32" fill="#b84a15"/><polygon points="4.98,-0.50 4.81,0.14 4.31,0.74 3.52,1.26 2.49,1.66 1.29,1.90 0.00,1.99 -1.29,1.90 -2.49,1.66 -3.52,1.26 -4.31,0.74 -4.81,0.14 -4.98,-0.50 -4.81,-1.14 -4.31,-1.74 -3.52,-2.26 -2.49,-2.66 -1.29,-2.90 -0.00,-2.99 1.29,-2.90 2.49,-2.66 3.52,-2.26 4.31,-1.74 4.81,-1.14" fill="#ff7a29"/><polygon points="1.28,-7.00 0.00,-6.36 0.00,0.14 1.28,-0.50" fill="#555e6a"/><polygon points="-1.28,-7.00 0.00,-6.36 0.00,0.14 -1.28,-0.50" fill="#75808f"/><polygon points="0.00,-7.64 1.28,-7.00 0.00,-6.36 -1.28,-7.00" fill="#97a2b1"/><polygon points="2.72,-7.40 2.62,-7.05 2.35,-6.72 1.92,-6.44 1.36,-6.22 0.70,-6.09 0.00,-6.04 -0.70,-6.09 -1.36,-6.22 -1.92,-6.44 -2.35,-6.72 -2.62,-7.05 -2.72,-7.40 -2.62,-7.75 -2.35,-8.08 -1.92,-8.36 -1.36,-8.58 -0.70,-8.71 -0.00,-8.76 0.70,-8.71 1.36,-8.58 1.92,-8.36 2.35,-8.08 2.62,-7.75" fill="#ffc21f"/><polygon points="1.92,0.56 -6.40,4.72 -6.40,6.52 1.92,2.36" fill="#6e3218"/><polygon points="-10.24,2.80 -6.40,4.72 -6.40,6.52 -10.24,4.60" fill="#9a4016"/><polygon points="-1.92,-1.36 1.92,0.56 -6.40,4.72 -10.24,2.80" fill="#ff873e"/><ellipse cx="0.00" cy="-7.00" rx="13.00" ry="8.78" fill="url(#r1_9)"/></g><text x="51.00" y="43.52" font-family="ui-monospace,Menlo,monospace" font-size="7" fill="#8b98a8" text-anchor="middle">rot 1</text><g transform="translate(85.00 24.00)"><polygon points="6.79,1.20 6.56,2.08 5.88,2.90 4.80,3.60 3.39,4.14 1.76,4.48 0.00,4.59 -1.76,4.48 -3.39,4.14 -4.80,3.60 -5.88,2.90 -6.56,2.08 -6.79,1.20 -6.56,0.32 -5.88,-0.50 -4.80,-1.20 -3.39,-1.74 -1.76,-2.08 -0.00,-2.19 1.76,-2.08 3.39,-1.74 4.80,-1.20 5.88,-0.50 6.56,0.32" fill="#b84a15"/><polygon points="4.98,-0.50 4.81,0.14 4.31,0.74 3.52,1.26 2.49,1.66 1.29,1.90 0.00,1.99 -1.29,1.90 -2.49,1.66 -3.52,1.26 -4.31,0.74 -4.81,0.14 -4.98,-0.50 -4.81,-1.14 -4.31,-1.74 -3.52,-2.26 -2.49,-2.66 -1.29,-2.90 -0.00,-2.99 1.29,-2.90 2.49,-2.66 3.52,-2.26 4.31,-1.74 4.81,-1.14" fill="#ff7a29"/><polygon points="1.28,-7.00 0.00,-6.36 0.00,0.14 1.28,-0.50" fill="#555e6a"/><polygon points="-1.28,-7.00 0.00,-6.36 0.00,0.14 -1.28,-0.50" fill="#75808f"/><polygon points="0.00,-7.64 1.28,-7.00 0.00,-6.36 -1.28,-7.00" fill="#97a2b1"/><polygon points="2.72,-7.40 2.62,-7.05 2.35,-6.72 1.92,-6.44 1.36,-6.22 0.70,-6.09 0.00,-6.04 -0.70,-6.09 -1.36,-6.22 -1.92,-6.44 -2.35,-6.72 -2.62,-7.05 -2.72,-7.40 -2.62,-7.75 -2.35,-8.08 -1.92,-8.36 -1.36,-8.58 -0.70,-8.71 -0.00,-8.76 0.70,-8.71 1.36,-8.58 1.92,-8.36 2.35,-8.08 2.62,-7.75" fill="#ffc21f"/><polygon points="10.24,2.80 6.40,4.72 6.40,6.52 10.24,4.60" fill="#6e3218"/><polygon points="-1.92,0.56 6.40,4.72 6.40,6.52 -1.92,2.36" fill="#9a4016"/><polygon points="1.92,-1.36 10.24,2.80 6.40,4.72 -1.92,0.56" fill="#ff873e"/><ellipse cx="0.00" cy="-7.00" rx="13.00" ry="8.78" fill="url(#r2_9)"/></g><text x="85.00" y="43.52" font-family="ui-monospace,Menlo,monospace" font-size="7" fill="#8b98a8" text-anchor="middle">rot 2</text><g transform="translate(119.00 24.00)"><polygon points="10.24,-3.60 1.92,0.56 1.92,2.36 10.24,-1.80" fill="#6e3218"/><polygon points="-1.92,-1.36 1.92,0.56 1.92,2.36 -1.92,0.44" fill="#9a4016"/><polygon points="6.40,-5.52 10.24,-3.60 1.92,0.56 -1.92,-1.36" fill="#ff873e"/><polygon points="6.79,1.20 6.56,2.08 5.88,2.90 4.80,3.60 3.39,4.14 1.76,4.48 0.00,4.59 -1.76,4.48 -3.39,4.14 -4.80,3.60 -5.88,2.90 -6.56,2.08 -6.79,1.20 -6.56,0.32 -5.88,-0.50 -4.80,-1.20 -3.39,-1.74 -1.76,-2.08 -0.00,-2.19 1.76,-2.08 3.39,-1.74 4.80,-1.20 5.88,-0.50 6.56,0.32" fill="#b84a15"/><polygon points="4.98,-0.50 4.81,0.14 4.31,0.74 3.52,1.26 2.49,1.66 1.29,1.90 0.00,1.99 -1.29,1.90 -2.49,1.66 -3.52,1.26 -4.31,0.74 -4.81,0.14 -4.98,-0.50 -4.81,-1.14 -4.31,-1.74 -3.52,-2.26 -2.49,-2.66 -1.29,-2.90 -0.00,-2.99 1.29,-2.90 2.49,-2.66 3.52,-2.26 4.31,-1.74 4.81,-1.14" fill="#ff7a29"/><polygon points="1.28,-7.00 0.00,-6.36 0.00,0.14 1.28,-0.50" fill="#555e6a"/><polygon points="-1.28,-7.00 0.00,-6.36 0.00,0.14 -1.28,-0.50" fill="#75808f"/><polygon points="-0.00,-7.64 1.28,-7.00 0.00,-6.36 -1.28,-7.00" fill="#97a2b1"/><polygon points="2.72,-7.40 2.62,-7.05 2.35,-6.72 1.92,-6.44 1.36,-6.22 0.70,-6.09 0.00,-6.04 -0.70,-6.09 -1.36,-6.22 -1.92,-6.44 -2.35,-6.72 -2.62,-7.05 -2.72,-7.40 -2.62,-7.75 -2.35,-8.08 -1.92,-8.36 -1.36,-8.58 -0.70,-8.71 -0.00,-8.76 0.70,-8.71 1.36,-8.58 1.92,-8.36 2.35,-8.08 2.62,-7.75" fill="#ffc21f"/><ellipse cx="0.00" cy="-7.00" rx="13.00" ry="8.78" fill="url(#r3_9)"/></g><text x="119.00" y="43.52" font-family="ui-monospace,Menlo,monospace" font-size="7" fill="#8b98a8" text-anchor="middle">rot 3</text></g></svg>
