<svg xmlns="http://www.w3.org/2000/svg" width="912" height="489" viewBox="0 0 152.00 81.52"><title>Crate</title><desc>The plain blocker. Braced corners, one stencilled face, reads as a cube at any size.</desc><defs><radialGradient id="r0_0" cx="50%" cy="50%" r="50%"><stop offset="0" stop-color="#10141b" stop-opacity="0.42"/><stop offset="0.55" stop-color="#10141b" stop-opacity="0.147"/><stop offset="1" stop-color="#10141b" stop-opacity="0"/></radialGradient><radialGradient id="r1_0" cx="50%" cy="50%" r="50%"><stop offset="0" stop-color="#10141b" stop-opacity="0.42"/><stop offset="0.55" stop-color="#10141b" stop-opacity="0.147"/><stop offset="1" stop-color="#10141b" stop-opacity="0"/></radialGradient><radialGradient id="r2_0" cx="50%" cy="50%" r="50%"><stop offset="0" stop-color="#10141b" stop-opacity="0.42"/><stop offset="0.55" stop-color="#10141b" stop-opacity="0.147"/><stop offset="1" stop-color="#10141b" stop-opacity="0"/></radialGradient><radialGradient id="r3_0" cx="50%" cy="50%" r="50%"><stop offset="0" stop-color="#10141b" stop-opacity="0.42"/><stop offset="0.55" stop-color="#10141b" stop-opacity="0.147"/><stop offset="1" stop-color="#10141b" stop-opacity="0"/></radialGradient></defs><rect width="100%" height="100%" fill="#151a22"/><text x="4" y="8" font-family="ui-monospace,Menlo,monospace" font-size="7.5" fill="#c3ccd8">wall_crate</text><text x="4" y="15" font-family="ui-monospace,Menlo,monospace" font-size="5.5" fill="#8b98a8">four distinct rotations</text><g transform="translate(0 16)"><g transform="translate(19.00 24.52)"><ellipse cx="0.00" cy="8.00" rx="15.00" ry="10.13" fill="url(#r0_0)"/><polygon points="0.88,-19.04 0.00,-18.60 0.00,2.00 0.88,1.56" fill="#555e6a"/><polygon points="-0.88,-19.04 0.00,-18.60 0.00,2.00 -0.88,1.56" fill="#75808f"/><polygon points="0.00,-19.48 0.88,-19.04 0.00,-18.60 -0.88,-19.04" fill="#97a2b1"/><polygon points="13.76,-12.00 0.00,-5.12 0.00,14.88 13.76,8.00" fill="#38404b"/><polygon points="-13.76,-12.00 0.00,-5.12 0.00,14.88 -13.76,8.00" fill="#4e5966"/><polygon points="0.00,-18.88 13.76,-12.00 0.00,-5.12 -13.76,-12.00" fill="#646e7b"/><polygon points="14.24,-13.40 0.00,-6.28 0.00,-4.88 14.24,-12.00" fill="#555e6a"/><polygon points="-14.24,-13.40 0.00,-6.28 0.00,-4.88 -14.24,-12.00" fill="#75808f"/><polygon points="0.00,-20.52 14.24,-13.40 0.00,-6.28 -14.24,-13.40" fill="#4d5661"/><polygon points="13.76,-12.60 12.88,-12.16 12.88,8.44 13.76,8.00" fill="#555e6a"/><polygon points="12.00,-12.60 12.88,-12.16 12.88,8.44 12.00,8.00" fill="#75808f"/><polygon points="12.88,-13.04 13.76,-12.60 12.88,-12.16 12.00,-12.60" fill="#97a2b1"/><polygon points="-12.00,-12.60 -12.88,-12.16 -12.88,8.44 -12.00,8.00" fill="#555e6a"/><polygon points="-13.76,-12.60 -12.88,-12.16 -12.88,8.44 -13.76,8.00" fill="#75808f"/><polygon points="-12.88,-13.04 -12.00,-12.60 -12.88,-12.16 -13.76,-12.60" fill="#97a2b1"/><polygon points="12.29,7.36 1.73,-3.86 1.73,-2.26 12.29,8.66" fill="#8b98a8"/><polygon points="-4.74,-1.79 -4.77,-1.78 -4.77,3.62 -4.74,3.61" fill="#96751d"/><polygon points="-9.25,-4.02 -4.77,-1.78 -4.77,3.62 -9.25,1.38" fill="#d4a31e"/><polygon points="-9.22,-4.03 -4.74,-1.79 -4.77,-1.78 -9.25,-4.02" fill="#ffc835"/><polygon points="7.81,7.50 6.21,8.30 6.21,10.10 7.81,9.30" fill="#96751d"/><polygon points="6.18,8.29 6.21,8.30 6.21,10.10 6.18,10.09" fill="#d4a31e"/><polygon points="7.78,7.49 7.81,7.50 6.21,8.30 6.18,8.29" fill="#ffc835"/><polygon points="0.88,-6.16 0.00,-5.72 0.00,14.88 0.88,14.44" fill="#555e6a"/><polygon points="-0.88,-6.16 0.00,-5.72 0.00,14.88 -0.88,14.44" fill="#75808f"/><polygon points="0.00,-6.60 0.88,-6.16 0.00,-5.72 -0.88,-6.16" fill="#97a2b1"/></g><text x="19.00" y="60.52" font-family="ui-monospace,Menlo,monospace" font-size="7" fill="#8b98a8" text-anchor="middle">rot 0</text><g transform="translate(57.00 24.52)"><ellipse cx="0.00" cy="8.00" rx="15.00" ry="10.13" fill="url(#r1_0)"/><polygon points="0.88,-19.04 0.00,-18.60 0.00,2.00 0.88,1.56" fill="#555e6a"/><polygon points="-0.88,-19.04 0.00,-18.60 0.00,2.00 -0.88,1.56" fill="#75808f"/><polygon points="0.00,-19.48 0.88,-19.04 0.00,-18.60 -0.88,-19.04" fill="#97a2b1"/><polygon points="7.81,1.30 7.78,1.31 7.78,3.11 7.81,3.10" fill="#96751d"/><polygon points="6.18,0.51 7.78,1.31 7.78,3.11 6.18,2.31" fill="#d4a31e"/><polygon points="6.21,0.50 7.81,1.30 7.78,1.31 6.18,0.51" fill="#ffc835"/><polygon points="13.76,-12.00 0.00,-5.12 0.00,14.88 13.76,8.00" fill="#3b434f"/><polygon points="-13.76,-12.00 0.00,-5.12 0.00,14.88 -13.76,8.00" fill="#4e5966"/><polygon points="0.00,-18.88 13.76,-12.00 0.00,-5.12 -13.76,-12.00" fill="#646e7b"/><polygon points="14.24,-13.40 0.00,-6.28 0.00,-4.88 14.24,-12.00" fill="#555e6a"/><polygon points="-14.24,-13.40 0.00,-6.28 0.00,-4.88 -14.24,-12.00" fill="#75808f"/><polygon points="0.00,-20.52 14.24,-13.40 0.00,-6.28 -14.24,-13.40" fill="#4d5661"/><polygon points="-12.00,-12.60 -12.88,-12.16 -12.88,8.44 -12.00,8.00" fill="#555e6a"/><polygon points="-13.76,-12.60 -12.88,-12.16 -12.88,8.44 -13.76,8.00" fill="#75808f"/><polygon points="-12.88,-13.04 -12.00,-12.60 -12.88,-12.16 -13.76,-12.60" fill="#97a2b1"/><polygon points="13.76,-12.60 12.88,-12.16 12.88,8.44 13.76,8.00" fill="#555e6a"/><polygon points="12.00,-12.60 12.88,-12.16 12.88,8.44 12.00,8.00" fill="#75808f"/><polygon points="12.88,-13.04 13.76,-12.60 12.88,-12.16 12.00,-12.60" fill="#97a2b1"/><polygon points="1.73,0.36 12.29,-10.86 12.29,-9.26 1.73,1.66" fill="#8b98a8"/><polygon points="9.25,-4.02 4.77,-1.78 4.77,3.62 9.25,1.38" fill="#96751d"/><polygon points="4.74,-1.79 4.77,-1.78 4.77,3.62 4.74,3.61" fill="#d4a31e"/><polygon points="9.22,-4.03 9.25,-4.02 4.77,-1.78 4.74,-1.79" fill="#ffc835"/><polygon points="0.88,-6.16 0.00,-5.72 0.00,14.88 0.88,14.44" fill="#555e6a"/><polygon points="-0.88,-6.16 0.00,-5.72 0.00,14.88 -0.88,14.44" fill="#75808f"/><polygon points="0.00,-6.60 0.88,-6.16 0.00,-5.72 -0.88,-6.16" fill="#97a2b1"/></g><text x="57.00" y="60.52" font-family="ui-monospace,Menlo,monospace" font-size="7" fill="#8b98a8" text-anchor="middle">rot 1</text><g transform="translate(95.00 24.52)"><ellipse cx="0.00" cy="8.00" rx="15.00" ry="10.13" fill="url(#r2_0)"/><polygon points="0.88,-19.04 0.00,-18.60 0.00,2.00 0.88,1.56" fill="#555e6a"/><polygon points="-0.88,-19.04 0.00,-18.60 0.00,2.00 -0.88,1.56" fill="#75808f"/><polygon points="0.00,-19.48 0.88,-19.04 0.00,-18.60 -0.88,-19.04" fill="#97a2b1"/><polygon points="9.25,-8.78 9.22,-8.77 9.22,-3.37 9.25,-3.38" fill="#96751d"/><polygon points="4.74,-11.01 9.22,-8.77 9.22,-3.37 4.74,-5.61" fill="#d4a31e"/><polygon points="4.77,-11.02 9.25,-8.78 9.22,-8.77 4.74,-11.01" fill="#ffc835"/><polygon points="-6.18,0.51 -7.78,1.31 -7.78,3.11 -6.18,2.31" fill="#96751d"/><polygon points="-7.81,1.30 -7.78,1.31 -7.78,3.11 -7.81,3.10" fill="#d4a31e"/><polygon points="-6.21,0.50 -6.18,0.51 -7.78,1.31 -7.81,1.30" fill="#ffc835"/><polygon points="13.76,-12.00 0.00,-5.12 0.00,14.88 13.76,8.00" fill="#3b434f"/><polygon points="-13.76,-12.00 0.00,-5.12 0.00,14.88 -13.76,8.00" fill="#48525f"/><polygon points="0.00,-18.88 13.76,-12.00 0.00,-5.12 -13.76,-12.00" fill="#646e7b"/><polygon points="14.24,-13.40 0.00,-6.28 0.00,-4.88 14.24,-12.00" fill="#555e6a"/><polygon points="-14.24,-13.40 0.00,-6.28 0.00,-4.88 -14.24,-12.00" fill="#75808f"/><polygon points="0.00,-20.52 14.24,-13.40 0.00,-6.28 -14.24,-13.40" fill="#4d5661"/><polygon points="-12.00,-12.60 -12.88,-12.16 -12.88,8.44 -12.00,8.00" fill="#555e6a"/><polygon points="-13.76,-12.60 -12.88,-12.16 -12.88,8.44 -13.76,8.00" fill="#75808f"/><polygon points="-12.88,-13.04 -12.00,-12.60 -12.88,-12.16 -13.76,-12.60" fill="#97a2b1"/><polygon points="13.76,-12.60 12.88,-12.16 12.88,8.44 13.76,8.00" fill="#555e6a"/><polygon points="12.00,-12.60 12.88,-12.16 12.88,8.44 12.00,8.00" fill="#75808f"/><polygon points="12.88,-13.04 13.76,-12.60 12.88,-12.16 12.00,-12.60" fill="#97a2b1"/><polygon points="-12.29,5.64 -1.73,-16.14 -1.73,-14.54 -12.29,6.94" fill="#8b98a8"/><polygon points="0.88,-6.16 0.00,-5.72 0.00,14.88 0.88,14.44" fill="#555e6a"/><polygon points="-0.88,-6.16 0.00,-5.72 0.00,14.88 -0.88,14.44" fill="#75808f"/><polygon points="0.00,-6.60 0.88,-6.16 0.00,-5.72 -0.88,-6.16" fill="#97a2b1"/></g><text x="95.00" y="60.52" font-family="ui-monospace,Menlo,monospace" font-size="7" fill="#8b98a8" text-anchor="middle">rot 2</text><g transform="translate(133.00 24.52)"><ellipse cx="0.00" cy="8.00" rx="15.00" ry="10.13" fill="url(#r3_0)"/><polygon points="0.88,-19.04 0.00,-18.60 0.00,2.00 0.88,1.56" fill="#555e6a"/><polygon points="-0.88,-19.04 0.00,-18.60 0.00,2.00 -0.88,1.56" fill="#75808f"/><polygon points="-0.00,-19.48 0.88,-19.04 0.00,-18.60 -0.88,-19.04" fill="#97a2b1"/><polygon points="-4.74,-11.01 -9.22,-8.77 -9.22,-3.37 -4.74,-5.61" fill="#96751d"/><polygon points="-9.25,-8.78 -9.22,-8.77 -9.22,-3.37 -9.25,-3.38" fill="#d4a31e"/><polygon points="-4.77,-11.02 -4.74,-11.01 -9.22,-8.77 -9.25,-8.78" fill="#ffc835"/><polygon points="13.76,-12.00 -0.00,-5.12 -0.00,14.88 13.76,8.00" fill="#363f49"/><polygon points="-13.76,-12.00 -0.00,-5.12 -0.00,14.88 -13.76,8.00" fill="#4a5562"/><polygon points="-0.00,-18.88 13.76,-12.00 -0.00,-5.12 -13.76,-12.00" fill="#646e7b"/><polygon points="14.24,-13.40 -0.00,-6.28 -0.00,-4.88 14.24,-12.00" fill="#555e6a"/><polygon points="-14.24,-13.40 -0.00,-6.28 -0.00,-4.88 -14.24,-12.00" fill="#75808f"/><polygon points="-0.00,-20.52 14.24,-13.40 -0.00,-6.28 -14.24,-13.40" fill="#4d5661"/><polygon points="13.76,-12.60 12.88,-12.16 12.88,8.44 13.76,8.00" fill="#555e6a"/><polygon points="12.00,-12.60 12.88,-12.16 12.88,8.44 12.00,8.00" fill="#75808f"/><polygon points="12.88,-13.04 13.76,-12.60 12.88,-12.16 12.00,-12.60" fill="#97a2b1"/><polygon points="-12.00,-12.60 -12.88,-12.16 -12.88,8.44 -12.00,8.00" fill="#555e6a"/><polygon points="-13.76,-12.60 -12.88,-12.16 -12.88,8.44 -13.76,8.00" fill="#75808f"/><polygon points="-12.88,-13.04 -12.00,-12.60 -12.88,-12.16 -13.76,-12.60" fill="#97a2b1"/><polygon points="-1.73,12.64 -12.29,-9.14 -12.29,-7.54 -1.73,13.94" fill="#8b98a8"/><polygon points="-6.18,8.29 -6.21,8.30 -6.21,10.10 -6.18,10.09" fill="#96751d"/><polygon points="-7.81,7.50 -6.21,8.30 -6.21,10.10 -7.81,9.30" fill="#d4a31e"/><polygon points="-7.78,7.49 -6.18,8.29 -6.21,8.30 -7.81,7.50" fill="#ffc835"/><polygon points="0.88,-6.16 -0.00,-5.72 -0.00,14.88 0.88,14.44" fill="#555e6a"/><polygon points="-0.88,-6.16 -0.00,-5.72 -0.00,14.88 -0.88,14.44" fill="#75808f"/><polygon points="0.00,-6.60 0.88,-6.16 -0.00,-5.72 -0.88,-6.16" fill="#97a2b1"/></g><text x="133.00" y="60.52" font-family="ui-monospace,Menlo,monospace" font-size="7" fill="#8b98a8" text-anchor="middle">rot 3</text></g></svg>
